<?xml version="1.0" encoding="UTF-8"?>
<svg id="Solo" xmlns="http://www.w3.org/2000/svg" viewBox="0 0 200 200">
  <defs>
    <style>
      .cls-1 {
        fill: #ede7dc;
      }

      .cls-2 {
        fill: #0f1d2e;
      }

      .cls-3 {
        fill: none;
      }

      .cls-4 {
        fill: #c8a56a;
      }

      .cls-5 {
        fill: #2e7d71;
      }
    </style>
  </defs>
  <rect class="cls-3" x="58.54" y="58.97" width="20.39" height=".04"/>
  <path class="cls-2" d="M61.36,130.7h14.76c1.56,0,2.82-1.26,2.82-2.82V49.71c0-1.56-1.26-2.82-2.82-2.82h-14.76c-1.56,0-2.82,1.26-2.82,2.82v78.18c0,1.56,1.26,2.82,2.82,2.82ZM58.54,58.97v-1.63h20.39v1.67h-20.39v-.04ZM58.54,121.24h20.39v1.67h-20.39v-1.67Z"/>
  <rect class="cls-1" x="58.54" y="57.34" width="20.39" height="1.63"/>
  <rect class="cls-1" x="58.54" y="121.24" width="20.39" height="1.67"/>
  <path class="cls-4" d="M86.46,130.7h14.76c1.56,0,2.82-1.26,2.82-2.82v-63.95h-20.39v63.95c0,1.56,1.26,2.82,2.82,2.82Z"/>
  <path class="cls-4" d="M104.03,53.96c0-1.56-1.26-2.82-2.82-2.82h-14.76c-1.56,0-2.82,1.26-2.82,2.82v2.54h20.39v-2.54Z"/>
  <rect class="cls-4" x="83.64" y="58.17" width="20.39" height="4.1"/>
  <rect class="cls-1" x="83.64" y="56.5" width="20.39" height="1.67"/>
  <rect class="cls-1" x="83.64" y="62.27" width="20.39" height="1.67"/>
  <path class="cls-5" d="M107.23,72.8l19.88-4.54.3,1.31-19.88,4.54,11.97,52.49,19.88-4.54-12.61-55.28c-.35-1.52-1.86-2.47-3.37-2.12l-14.39,3.28c-1.52.35-2.47,1.86-2.12,3.37l.34,1.48Z"/>
  <path class="cls-5" d="M119.57,126.9l.37,1.62c.35,1.52,1.86,2.47,3.37,2.12l14.39-3.28c1.52-.35,2.47-1.86,2.12-3.37l-.14-.6-19.88,4.54-.23-1.03Z"/>
  <rect class="cls-1" x="107.12" y="70.52" width="20.39" height="1.35" transform="translate(-12.9 27.88) rotate(-12.85)"/>
  <polygon class="cls-1" points="119.57 126.9 119.8 127.92 139.68 123.39 139.52 122.65 139.38 122.07 139.38 122.07 119.5 126.61 119.57 126.9"/>
  <rect class="cls-2" x="41.53" y="136.33" width="116.95" height="13.99" rx="1.65" ry="1.65"/>
</svg>